<?xml version="1.0" encoding="UTF-8"?>
<svg width="820px" height="159px" viewBox="0 0 820 159" version="1.1" xmlns="http://www.w3.org/2000/svg" xmlns:xlink="http://www.w3.org/1999/xlink">
    <!-- Generator: Sketch 52.6 (67491) - http://www.bohemiancoding.com/sketch -->
    <title>Manpower_logo_liggende_NEG</title>
    <desc>Created with Sketch.</desc>
    <defs>
        <polygon id="path-1" points="0.06 0.0302780812 819.466 0.0302780812 819.466 159 0.06 159"></polygon>
    </defs>
    <g id="Manpower_logo_liggende_NEG" stroke="none" stroke-width="1" fill="none" fill-rule="evenodd">
        <g id="Group-8">
            <mask id="mask-2" fill="white">
                <use xlink:href="#path-1"></use>
            </mask>
            <g id="Clip-2"></g>
            <path d="M246.947,98.576 C243.938,106.829 234.806,111.096 226.543,108.083 C218.285,105.078 214.026,95.939 217.035,87.686 L245.121,10.502 C248.13,2.246 257.264,-2.011 265.523,0.994 C273.783,3.998 278.042,13.135 275.037,21.391 L246.947,98.576" id="Fill-1" fill="#FFFFFF" mask="url(#mask-2)"></path>
            <path d="M30.877,148.53 C27.873,156.785 18.735,161.042 10.477,158.036 C2.217,155.032 -2.042,145.899 0.964,137.642 L33.083,49.394 C36.094,41.131 45.221,36.874 53.485,39.88 C61.745,42.884 66.008,52.02 62.998,60.283 L30.877,148.53" id="Fill-3" fill="#FFFFFF" mask="url(#mask-2)"></path>
            <path d="M80.342,148.53 C77.336,156.785 68.201,161.042 59.94,158.036 C51.68,155.032 47.424,145.899 50.429,137.642 L82.549,49.394 C85.558,41.131 94.687,36.874 102.95,39.88 C111.21,42.884 115.47,52.02 112.462,60.283 L80.342,148.53" id="Fill-4" fill="#FFFFFF" mask="url(#mask-2)"></path>
            <path d="M129.779,148.53 C126.775,156.785 117.639,161.042 109.379,158.036 C101.12,155.032 96.86,145.899 99.867,137.642 L131.985,49.394 C134.996,41.131 144.125,36.874 152.388,39.88 C160.651,42.884 164.91,52.02 161.897,60.283 L129.779,148.53" id="Fill-5" fill="#FFFFFF" mask="url(#mask-2)"></path>
            <path d="M179.202,148.53 C176.197,156.785 167.058,161.042 158.807,158.036 C150.541,155.032 146.281,145.899 149.29,137.642 L195.568,10.502 C198.569,2.246 207.706,-2.011 215.962,0.994 C224.229,3.998 228.484,13.135 225.479,21.391 L179.202,148.53" id="Fill-6" fill="#FFFFFF" mask="url(#mask-2)"></path>
            <path d="M811.033,55.893 C815.633,55.893 819.467,59.528 819.467,64.298 C819.467,69.154 815.633,72.78 811.033,72.78 C806.442,72.78 802.577,69.154 802.577,64.298 C802.577,59.528 806.442,55.893 811.033,55.893 Z M811.033,71.55 C814.936,71.55 817.937,68.431 817.937,64.298 C817.937,60.262 814.936,57.132 811.033,57.132 C807.125,57.132 804.109,60.262 804.109,64.298 C804.109,68.431 807.125,71.55 811.033,71.55 Z M807.772,59.402 L811.574,59.402 C813.904,59.402 815.005,60.329 815.005,62.227 C815.005,64.007 813.876,64.756 812.413,64.914 L815.224,69.272 L813.573,69.272 L810.918,65.015 L809.296,65.015 L809.296,69.272 L807.772,69.272 L807.772,59.402 Z M809.296,63.771 L810.883,63.771 C812.24,63.771 813.473,63.707 813.473,62.164 C813.473,60.853 812.361,60.631 811.327,60.631 L809.296,60.631 L809.296,63.771 Z" id="Fill-7" fill="#FFFFFF" mask="url(#mask-2)"></path>
            <polyline id="Fill-9" fill="#FFFFFF" mask="url(#mask-2)" points="325.796 56.746 349.774 120.687 373.858 56.746 387.713 56.746 387.713 132.836 378.121 132.836 378.121 69.534 377.907 69.534 354.143 132.836 345.512 132.836 321.746 69.534 321.534 69.534 321.534 132.836 311.942 132.836 311.942 56.746 325.796 56.746"></polyline>
            <path d="M443.702,134.008 C441.358,134.008 439.493,133.348 438.106,132.035 C436.722,130.721 436.029,128.57 436.029,125.589 C433.542,128.57 430.647,130.721 427.344,132.035 C424.04,133.348 420.471,134.008 416.635,134.008 C414.146,134.008 411.802,133.74 409.6,133.21 C407.397,132.675 405.461,131.787 403.793,130.543 C402.122,129.302 400.809,127.7 399.85,125.748 C398.891,123.795 398.411,121.432 398.411,118.662 C398.411,115.537 398.944,112.976 400.01,110.989 C401.074,108.999 402.477,107.384 404.219,106.138 C405.959,104.894 407.948,103.953 410.187,103.316 C412.424,102.677 414.716,102.141 417.061,101.718 C419.546,101.22 421.909,100.848 424.147,100.597 C426.385,100.349 428.356,99.995 430.061,99.532 C431.767,99.071 433.115,98.397 434.111,97.507 C435.105,96.62 435.604,95.321 435.604,93.616 C435.604,91.629 435.23,90.03 434.483,88.82 C433.738,87.613 432.779,86.689 431.606,86.052 C430.436,85.413 429.118,84.984 427.663,84.773 C426.206,84.56 424.768,84.454 423.349,84.454 C419.512,84.454 416.313,85.182 413.757,86.64 C411.198,88.094 409.813,90.847 409.6,94.897 L400.542,94.897 C400.684,91.484 401.395,88.607 402.674,86.265 C403.952,83.918 405.657,82.02 407.788,80.562 C409.92,79.108 412.372,78.059 415.143,77.417 C417.913,76.781 420.825,76.458 423.88,76.458 C426.366,76.458 428.836,76.639 431.287,76.994 C433.738,77.348 435.958,78.077 437.948,79.177 C439.937,80.28 441.534,81.827 442.743,83.814 C443.95,85.804 444.555,88.397 444.555,91.591 L444.555,119.941 C444.555,122.069 444.679,123.634 444.928,124.63 C445.177,125.627 446.011,126.122 447.432,126.122 C448.213,126.122 449.137,125.943 450.203,125.589 L450.203,132.62 C448.639,133.545 446.473,134.008 443.702,134.008 Z M431.021,106.246 C429.172,106.637 427.237,106.957 425.213,107.205 C423.188,107.455 421.145,107.737 419.084,108.057 C417.023,108.377 415.178,108.892 413.543,109.601 C411.907,110.312 410.575,111.326 409.548,112.639 C408.517,113.956 408.002,115.748 408.002,118.022 C408.002,119.514 408.303,120.776 408.907,121.807 C409.51,122.836 410.293,123.671 411.252,124.31 C412.211,124.947 413.347,125.414 414.663,125.696 C415.976,125.981 417.308,126.122 418.658,126.122 C421.643,126.122 424.2,125.713 426.331,124.895 C428.463,124.08 430.203,123.049 431.553,121.807 C432.901,120.563 433.897,119.213 434.537,117.755 C435.177,116.298 435.496,114.932 435.496,113.653 L435.496,104.382 C434.358,105.234 432.866,105.854 431.021,106.246 Z" id="Fill-10" fill="#FFFFFF" mask="url(#mask-2)"></path>
            <path d="M467.146,77.74 L467.146,86.478 L467.359,86.478 C471.124,79.802 477.093,76.458 485.264,76.458 C488.886,76.458 491.905,76.956 494.321,77.953 C496.735,78.949 498.689,80.332 500.182,82.106 C501.674,83.886 502.722,85.997 503.327,88.451 C503.929,90.899 504.232,93.616 504.232,96.602 L504.232,132.836 L495.174,132.836 L495.174,95.534 C495.174,92.127 494.178,89.425 492.189,87.438 C490.2,85.45 487.464,84.454 483.983,84.454 C481.213,84.454 478.815,84.877 476.79,85.733 C474.767,86.585 473.077,87.792 471.729,89.356 C470.378,90.92 469.366,92.749 468.69,94.843 C468.016,96.939 467.68,99.232 467.68,101.718 L467.68,132.836 L458.621,132.836 L458.621,77.74 L467.146,77.74" id="Fill-11" fill="#FFFFFF" mask="url(#mask-2)"></path>
            <path d="M525.418,77.74 L525.418,85.199 L525.632,85.199 C527.122,82.144 529.467,79.926 532.665,78.538 C535.861,77.155 539.379,76.458 543.215,76.458 C547.478,76.458 551.189,77.241 554.351,78.805 C557.511,80.369 560.141,82.481 562.237,85.145 C564.331,87.809 565.914,90.883 566.979,94.362 C568.046,97.844 568.577,101.539 568.577,105.448 C568.577,109.353 568.063,113.052 567.033,116.531 C566.002,120.012 564.438,123.049 562.343,125.644 C560.248,128.236 557.618,130.278 554.458,131.77 C551.295,133.262 547.618,134.008 543.428,134.008 C542.077,134.008 540.567,133.864 538.899,133.579 C537.229,133.297 535.577,132.836 533.943,132.196 C532.308,131.554 530.764,130.687 529.308,129.584 C527.851,128.483 526.624,127.116 525.632,125.482 L525.418,125.482 L525.418,153.83 L516.359,153.83 L516.359,77.74 L525.418,77.74 Z M557.975,97.294 C557.298,94.843 556.269,92.657 554.884,90.738 C553.498,88.82 551.723,87.294 549.555,86.159 C547.388,85.021 544.848,84.454 541.936,84.454 C538.881,84.454 536.287,85.058 534.157,86.265 C532.024,87.475 530.284,89.053 528.935,91.007 C527.584,92.962 526.606,95.179 526.004,97.668 C525.399,100.154 525.099,102.677 525.099,105.234 C525.099,107.933 525.418,110.543 526.058,113.066 C526.696,115.589 527.709,117.809 529.094,119.728 C530.479,121.646 532.272,123.19 534.476,124.362 C536.677,125.534 539.342,126.122 542.469,126.122 C545.594,126.122 548.205,125.52 550.302,124.31 C552.396,123.103 554.085,121.502 555.363,119.514 C556.642,117.524 557.564,115.249 558.134,112.691 C558.702,110.137 558.986,107.51 558.986,104.805 C558.986,102.251 558.648,99.745 557.975,97.294 Z" id="Fill-12" fill="#FFFFFF" mask="url(#mask-2)"></path>
            <path d="M576.855,93.99 C577.991,90.476 579.696,87.42 581.972,84.825 C584.244,82.233 587.049,80.188 590.39,78.699 C593.729,77.204 597.565,76.458 601.9,76.458 C606.304,76.458 610.157,77.204 613.461,78.699 C616.765,80.188 619.553,82.233 621.828,84.825 C624.101,87.42 625.806,90.476 626.943,93.99 C628.081,97.507 628.648,101.292 628.648,105.342 C628.648,109.39 628.081,113.158 626.943,116.637 C625.806,120.12 624.101,123.155 621.828,125.748 C619.553,128.343 616.765,130.367 613.461,131.822 C610.157,133.276 606.304,134.008 601.9,134.008 C597.565,134.008 593.729,133.276 590.39,131.822 C587.049,130.367 584.244,128.343 581.972,125.748 C579.696,123.155 577.991,120.12 576.855,116.637 C575.719,113.158 575.15,109.39 575.15,105.342 C575.15,101.292 575.719,97.507 576.855,93.99 Z M586.075,114.241 C586.962,116.833 588.185,118.999 589.749,120.739 C591.313,122.481 593.141,123.815 595.239,124.736 C597.332,125.658 599.554,126.122 601.9,126.122 C604.244,126.122 606.462,125.658 608.56,124.736 C610.653,123.815 612.485,122.481 614.049,120.739 C615.61,118.999 616.834,116.833 617.724,114.241 C618.614,111.646 619.058,108.679 619.058,105.342 C619.058,102.003 618.614,99.036 617.724,96.441 C616.834,93.852 615.61,91.666 614.049,89.888 C612.485,88.112 610.653,86.763 608.56,85.836 C606.462,84.914 604.244,84.454 601.9,84.454 C599.554,84.454 597.332,84.914 595.239,85.836 C593.141,86.763 591.313,88.112 589.749,89.888 C588.185,91.666 586.962,93.852 586.075,96.441 C585.187,99.036 584.742,102.003 584.742,105.342 C584.742,108.679 585.187,111.646 586.075,114.241 Z" id="Fill-13" fill="#FFFFFF" mask="url(#mask-2)"></path>
            <polyline id="Fill-14" fill="#FFFFFF" mask="url(#mask-2)" points="681.613 132.836 670.424 89.036 670.21 89.036 659.127 132.836 649.323 132.836 631.63 77.74 641.65 77.74 654.118 122.818 654.329 122.818 665.415 77.74 675.322 77.74 686.832 122.818 687.045 122.818 699.41 77.74 708.788 77.74 691.204 132.836 681.613 132.836"></polyline>
            <path d="M753.022,129.319 C748.901,132.444 743.714,134.008 737.461,134.008 C733.057,134.008 729.24,133.297 726.009,131.877 C722.774,130.454 720.056,128.467 717.857,125.906 C715.651,123.351 714.001,120.296 712.901,116.744 C711.798,113.189 711.176,109.321 711.034,105.128 C711.034,100.934 711.674,97.097 712.953,93.616 C714.231,90.136 716.023,87.118 718.336,84.56 C720.64,82 723.379,80.015 726.539,78.593 C729.701,77.17 733.163,76.458 736.934,76.458 C741.833,76.458 745.899,77.472 749.134,79.497 C752.363,81.522 754.958,84.099 756.914,87.224 C758.866,90.352 760.218,93.76 760.96,97.452 C761.706,101.15 762.012,104.664 761.868,108.006 L720.626,108.006 C720.554,110.419 720.839,112.712 721.479,114.878 C722.118,117.047 723.146,118.965 724.568,120.633 C725.988,122.303 727.804,123.634 730.001,124.63 C732.204,125.627 734.8,126.122 737.783,126.122 C741.62,126.122 744.762,125.235 747.216,123.458 C749.667,121.683 751.28,118.982 752.066,115.355 L761.015,115.355 C759.806,121.54 757.142,126.194 753.022,129.319 Z M750.839,93.938 C750.021,92.02 748.921,90.37 747.533,88.981 C746.147,87.599 744.515,86.496 742.631,85.68 C740.747,84.86 738.67,84.454 736.397,84.454 C734.054,84.454 731.937,84.86 730.059,85.68 C728.175,86.496 726.556,87.613 725.208,89.036 C723.86,90.459 722.792,92.109 722.011,93.99 C721.228,95.874 720.764,97.882 720.626,100.01 L752.276,100.01 C752.133,97.882 751.654,95.856 750.839,93.938 Z" id="Fill-15" fill="#FFFFFF" mask="url(#mask-2)"></path>
            <path d="M779.665,77.74 L779.665,89.356 L779.878,89.356 C782.078,84.877 784.78,81.576 787.977,79.445 C791.174,77.311 795.224,76.32 800.123,76.458 L800.123,86.052 C796.499,86.052 793.412,86.548 790.852,87.544 C788.297,88.541 786.234,89.995 784.673,91.914 C783.109,93.832 781.969,96.159 781.26,98.892 C780.552,101.629 780.197,104.774 780.197,108.325 L780.197,132.836 L771.139,132.836 L771.139,77.74 L779.665,77.74" id="Fill-16" fill="#FFFFFF" mask="url(#mask-2)"></path>
        </g>
    </g>
</svg>