<?xml version="1.0" encoding="utf-8"?>
<!-- Generator: Adobe Illustrator 25.0.1, SVG Export Plug-In . SVG Version: 6.00 Build 0)  -->
<svg version="1.1" id="Layer_1" xmlns="http://www.w3.org/2000/svg" xmlns:xlink="http://www.w3.org/1999/xlink" x="0px" y="0px"
	 viewBox="0 0 32 32" style="enable-background:new 0 0 32 32;" xml:space="preserve">
<style type="text/css">
	.st0{fill-rule:evenodd;clip-rule:evenodd;fill:#386097;}
	.st1{fill-rule:evenodd;clip-rule:evenodd;fill:#4C79AF;}
	.st2{fill-rule:evenodd;clip-rule:evenodd;fill:#5C7D70;}
	.st3{fill-rule:evenodd;clip-rule:evenodd;fill:#C25700;}
	.st4{fill:#C25700;}
	.st5{fill:#386097;}
	.st6{fill:#4C79AF;}
	.st7{fill:#5C7D70;}
	.st8{fill:#9D323D;}
</style>
<path class="st4" d="M27.7475452,18.0557594c-0.3242588,0.8899803-1.3088627,1.3500671-2.2000237,1.0251865l0,0
	c-0.8903637-0.3240547-1.3498554-1.3094406-1.0253925-2.1994038l3.0285664-8.3228703
	c0.3244724-0.8902698,1.3094501-1.3493457,2.2002201-1.02529l0,0c0.8903542,0.3239527,1.3498554,1.3092465,1.0257988,2.1994138
	L27.7475452,18.0557594z"/>
<path class="st5" d="M4.4486322,23.4423771c-0.3239536,0.8901768-1.3092461,1.3490639-2.1998215,1.0252056l0,0
	c-0.8906685-0.3240566-1.3498465-1.3088398-1.0257993-2.1992111l3.4635482-9.515914
	c0.324574-0.8910685,1.3087616-1.3500509,2.1999488-1.0259953l0,0c0.8906512,0.3239794,1.350348,1.3091526,1.0257821,2.2002211
	L4.4486322,23.4423771z"/>
<g>
	<path class="st6" d="M9.7825356,23.4423771C9.4583683,24.3325539,8.47328,24.791441,7.5825176,24.4675827l0,0
		c-0.8906593-0.3240566-1.3496513-1.3088398-1.0255866-2.1992111l3.4635568-9.515914
		c0.3244724-0.8910685,1.3088379-1.3500509,2.1998129-1.0259953l0,0c0.8907623,0.3239794,1.3500414,1.3091526,1.0257912,2.2002211
		L9.7825356,23.4423771z"/>
</g>
<g>
	<path class="st7" d="M15.1133623,23.4423771c-0.3238773,0.8901768-1.3090677,1.3490639-2.199729,1.0252056l0,0
		c-0.8906851-0.3240566-1.3499393-1.3088398-1.0256882-2.1992111l3.4633446-9.515914
		c0.324564-0.8910685,1.3089561-1.3500509,2.2001114-1.0259953l0,0c0.8907776,0.3239794,1.3500576,1.3091526,1.0254078,2.2002211
		L15.1133623,23.4423771z"/>
</g>
<g>
	<path class="st8" d="M20.4425583,23.4423771c-0.3238602,0.8901768-1.3092365,1.3490639-2.1992188,1.0252056l0,0
		c-0.8911533-0.3240566-1.3504505-1.3088398-1.0261822-2.1992111L22.2072868,8.558672
		c0.3238773-0.8902698,1.3092537-1.3493457,2.1994133-1.02529l0,0c0.8911781,0.3239527,1.3502712,1.3092465,1.0260029,2.1994138
		L20.4425583,23.4423771z"/>
</g>
</svg>
